<svg width="81" height="94" viewBox="0 0 81 94" fill="none" xmlns="http://www.w3.org/2000/svg">
<g filter="url(#filter0_dii_474_53)">
<path d="M75.3595 35.7685C82.1935 39.5837 82.1935 49.4163 75.3595 53.2315L15.1245 86.8586C8.45887 90.5798 0.249996 85.7611 0.249996 78.1271L0.249999 10.8729C0.249999 3.23893 8.45886 -1.57978 15.1245 2.14141L75.3595 35.7685Z" fill="url(#paint0_linear_474_53)"/>
<path d="M75.1158 36.2051C81.6081 39.8295 81.6081 49.1705 75.1158 52.7949L14.8808 86.422C8.54842 89.9571 0.749996 85.3794 0.749996 78.1271L0.749999 10.8729C0.749999 3.62063 8.54842 -0.957141 14.8808 2.57798L75.1158 36.2051Z" stroke="#1B1369"/>
</g>
<defs>
<filter id="filter0_dii_474_53" x="0.25" y="0.858398" width="80.2344" height="92.2832" filterUnits="userSpaceOnUse" color-interpolation-filters="sRGB">
<feFlood flood-opacity="0" result="BackgroundImageFix"/>
<feColorMatrix in="SourceAlpha" type="matrix" values="0 0 0 0 0 0 0 0 0 0 0 0 0 0 0 0 0 0 127 0" result="hardAlpha"/>
<feOffset dy="5"/>
<feComposite in2="hardAlpha" operator="out"/>
<feColorMatrix type="matrix" values="0 0 0 0 0.104497 0 0 0 0 0.076422 0 0 0 0 0.413324 0 0 0 1 0"/>
<feBlend mode="normal" in2="BackgroundImageFix" result="effect1_dropShadow_474_53"/>
<feBlend mode="normal" in="SourceGraphic" in2="effect1_dropShadow_474_53" result="shape"/>
<feColorMatrix in="SourceAlpha" type="matrix" values="0 0 0 0 0 0 0 0 0 0 0 0 0 0 0 0 0 0 127 0" result="hardAlpha"/>
<feOffset/>
<feGaussianBlur stdDeviation="4.75"/>
<feComposite in2="hardAlpha" operator="arithmetic" k2="-1" k3="1"/>
<feColorMatrix type="matrix" values="0 0 0 0 0.153299 0 0 0 0 0.153299 0 0 0 0 0.487399 0 0 0 1 0"/>
<feBlend mode="normal" in2="shape" result="effect2_innerShadow_474_53"/>
<feColorMatrix in="SourceAlpha" type="matrix" values="0 0 0 0 0 0 0 0 0 0 0 0 0 0 0 0 0 0 127 0" result="hardAlpha"/>
<feOffset/>
<feGaussianBlur stdDeviation="2.6"/>
<feComposite in2="hardAlpha" operator="arithmetic" k2="-1" k3="1"/>
<feColorMatrix type="matrix" values="0 0 0 0 0.679167 0 0 0 0 0.994653 0 0 0 0 1 0 0 0 0.22 0"/>
<feBlend mode="normal" in2="effect2_innerShadow_474_53" result="effect3_innerShadow_474_53"/>
</filter>
<linearGradient id="paint0_linear_474_53" x1="30.5" y1="-14" x2="30.5" y2="103" gradientUnits="userSpaceOnUse">
<stop stop-color="#4284E1"/>
<stop offset="1" stop-color="#2E2F9C"/>
</linearGradient>
</defs>
</svg>
