<svg xmlns="http://www.w3.org/2000/svg" width="58" height="61" viewBox="0 0 58 61" fill="none">
    <g filter="url(#filter0_d_482_111)">
        <mask id="path-1-outside-1_482_111" maskUnits="userSpaceOnUse" x="0" y="0" width="58" height="60" fill="black">
            <rect fill="white" width="58" height="60"/>
            <path fill-rule="evenodd" clip-rule="evenodd" d="M41.2238 4.57729C44.2187 1.32895 49.2799 1.12349 52.5282 4.11839C55.7766 7.11329 55.982 12.1744 52.9871 15.4228L39.434 30.1228L51.934 43.6806C54.9289 46.9289 54.7234 51.9901 51.4751 54.985C48.2268 57.9799 43.1656 57.7744 40.1707 54.5261L28.5527 41.9249L16.9348 54.526C13.9399 57.7744 8.87875 57.9798 5.63041 54.9849C2.38206 51.99 2.17661 46.9289 5.17151 43.6805L17.6714 30.1228L4.11839 15.4228C1.12349 12.1745 1.32895 7.11334 4.57729 4.11843C7.82564 1.12353 12.8868 1.32899 15.8817 4.57733L28.5527 18.3207L41.2238 4.57729Z"/>
        </mask>
        <path fill-rule="evenodd" clip-rule="evenodd" d="M41.2238 4.57729C44.2187 1.32895 49.2799 1.12349 52.5282 4.11839C55.7766 7.11329 55.982 12.1744 52.9871 15.4228L39.434 30.1228L51.934 43.6806C54.9289 46.9289 54.7234 51.9901 51.4751 54.985C48.2268 57.9799 43.1656 57.7744 40.1707 54.5261L28.5527 41.9249L16.9348 54.526C13.9399 57.7744 8.87875 57.9798 5.63041 54.9849C2.38206 51.99 2.17661 46.9289 5.17151 43.6805L17.6714 30.1228L4.11839 15.4228C1.12349 12.1745 1.32895 7.11334 4.57729 4.11843C7.82564 1.12353 12.8868 1.32899 15.8817 4.57733L28.5527 18.3207L41.2238 4.57729Z" fill="#AD611A"/>
        <path fill-rule="evenodd" clip-rule="evenodd" d="M41.2238 4.57729C44.2187 1.32895 49.2799 1.12349 52.5282 4.11839C55.7766 7.11329 55.982 12.1744 52.9871 15.4228L39.434 30.1228L51.934 43.6806C54.9289 46.9289 54.7234 51.9901 51.4751 54.985C48.2268 57.9799 43.1656 57.7744 40.1707 54.5261L28.5527 41.9249L16.9348 54.526C13.9399 57.7744 8.87875 57.9798 5.63041 54.9849C2.38206 51.99 2.17661 46.9289 5.17151 43.6805L17.6714 30.1228L4.11839 15.4228C1.12349 12.1745 1.32895 7.11334 4.57729 4.11843C7.82564 1.12353 12.8868 1.32899 15.8817 4.57733L28.5527 18.3207L41.2238 4.57729Z" fill="#A96523"/>
        <path d="M41.2238 4.57729L39.7534 3.2216V3.2216L41.2238 4.57729ZM52.9871 15.4228L54.4575 16.7785L52.9871 15.4228ZM39.434 30.1228L37.9636 28.7671L36.7137 30.1228L37.9636 31.4785L39.434 30.1228ZM51.934 43.6806L53.4044 42.3249L51.934 43.6806ZM51.4751 54.985L52.8308 56.4554V56.4554L51.4751 54.985ZM40.1707 54.5261L38.7003 55.8818L40.1707 54.5261ZM28.5527 41.9249L30.0231 40.5692L28.5527 38.9744L27.0823 40.5692L28.5527 41.9249ZM16.9348 54.526L18.4052 55.8817L16.9348 54.526ZM5.63041 54.9849L4.27472 56.4553L4.27472 56.4553L5.63041 54.9849ZM5.17151 43.6805L3.70109 42.3248H3.70109L5.17151 43.6805ZM17.6714 30.1228L19.1418 31.4785L20.3918 30.1228L19.1418 28.7671L17.6714 30.1228ZM4.11839 15.4228L5.5888 14.0671L4.11839 15.4228ZM15.8817 4.57733L14.4113 5.93302L15.8817 4.57733ZM28.5527 18.3207L27.0823 19.6763L28.5527 21.2712L30.0231 19.6763L28.5527 18.3207ZM53.8839 2.64798C49.8235 -1.09565 43.497 -0.838826 39.7534 3.2216L42.6942 5.93298C44.9404 3.49672 48.7363 3.34263 51.1725 5.5888L53.8839 2.64798ZM54.4575 16.7785C58.2012 12.718 57.9443 6.39161 53.8839 2.64798L51.1725 5.5888C53.6088 7.83498 53.7629 11.6308 51.5167 14.0671L54.4575 16.7785ZM40.9045 31.4785L54.4575 16.7785L51.5167 14.0671L37.9636 28.7671L40.9045 31.4785ZM37.9636 31.4785L50.4636 45.0363L53.4044 42.3249L40.9045 28.7671L37.9636 31.4785ZM50.4636 45.0363C52.7098 47.4725 52.5557 51.2684 50.1194 53.5146L52.8308 56.4554C56.8912 52.7118 57.148 46.3853 53.4044 42.3249L50.4636 45.0363ZM50.1194 53.5146C47.6832 55.7607 43.8873 55.6066 41.6411 53.1704L38.7003 55.8818C42.4439 59.9422 48.7704 60.199 52.8308 56.4554L50.1194 53.5146ZM41.6411 53.1704L30.0231 40.5692L27.0823 43.2806L38.7003 55.8818L41.6411 53.1704ZM18.4052 55.8817L30.0231 43.2806L27.0823 40.5692L15.4644 53.1703L18.4052 55.8817ZM4.27472 56.4553C8.33515 60.199 14.6616 59.9421 18.4052 55.8817L15.4644 53.1703C13.2182 55.6066 9.42235 55.7607 6.98609 53.5145L4.27472 56.4553ZM3.70109 42.3248C-0.0425322 46.3853 0.214288 52.7117 4.27472 56.4553L6.98609 53.5145C4.54983 51.2683 4.39574 47.4725 6.64192 45.0362L3.70109 42.3248ZM16.201 28.7671L3.70109 42.3248L6.64192 45.0362L19.1418 31.4785L16.201 28.7671ZM19.1418 28.7671L5.5888 14.0671L2.64798 16.7785L16.201 31.4785L19.1418 28.7671ZM5.5888 14.0671C3.34263 11.6309 3.49672 7.83502 5.93298 5.58885L3.2216 2.64802C-0.838826 6.39165 -1.09565 12.7181 2.64798 16.7785L5.5888 14.0671ZM5.93298 5.58885C8.36924 3.34267 12.1651 3.49676 14.4113 5.93302L17.3521 3.22165C13.6085 -0.838785 7.28203 -1.09561 3.2216 2.64802L5.93298 5.58885ZM14.4113 5.93302L27.0823 19.6763L30.0231 16.965L17.3521 3.22165L14.4113 5.93302ZM39.7534 3.2216L27.0823 16.965L30.0231 19.6763L42.6942 5.93298L39.7534 3.2216Z" fill="#783F0A" mask="url(#path-1-outside-1_482_111)"/>
    </g>
    <defs>
        <filter id="filter0_d_482_111" x="0" y="0" width="57.1055" height="60.1035" filterUnits="userSpaceOnUse" color-interpolation-filters="sRGB">
            <feFlood flood-opacity="0" result="BackgroundImageFix"/>
            <feColorMatrix in="SourceAlpha" type="matrix" values="0 0 0 0 0 0 0 0 0 0 0 0 0 0 0 0 0 0 127 0" result="hardAlpha"/>
            <feOffset dy="1"/>
            <feComposite in2="hardAlpha" operator="out"/>
            <feColorMatrix type="matrix" values="0 0 0 0 0 0 0 0 0 0 0 0 0 0 0 0 0 0 0.25 0"/>
            <feBlend mode="normal" in2="BackgroundImageFix" result="effect1_dropShadow_482_111"/>
            <feBlend mode="normal" in="SourceGraphic" in2="effect1_dropShadow_482_111" result="shape"/>
        </filter>
    </defs>
</svg>