<svg xmlns="http://www.w3.org/2000/svg" width="107" height="107" viewBox="0 0 107 107" fill="none">
    <mask id="path-1-inside-1_510_16" fill="white">
        <path fill-rule="evenodd" clip-rule="evenodd" d="M53.2825 107C82.7096 107 106.565 83.0472 106.565 53.5C106.565 23.9528 82.7096 0 53.2825 0C23.8554 0 0 23.9528 0 53.5C0 83.0472 23.8554 107 53.2825 107ZM53.2822 93.5162C75.7429 93.5162 93.9509 75.5029 93.9509 53.2824C93.9509 31.0619 75.7429 13.0487 53.2822 13.0487C30.8215 13.0487 12.6135 31.0619 12.6135 53.2824C12.6135 75.5029 30.8215 93.5162 53.2822 93.5162Z"/>
    </mask>
    <path fill-rule="evenodd" clip-rule="evenodd" d="M53.2825 107C82.7096 107 106.565 83.0472 106.565 53.5C106.565 23.9528 82.7096 0 53.2825 0C23.8554 0 0 23.9528 0 53.5C0 83.0472 23.8554 107 53.2825 107ZM53.2822 93.5162C75.7429 93.5162 93.9509 75.5029 93.9509 53.2824C93.9509 31.0619 75.7429 13.0487 53.2822 13.0487C30.8215 13.0487 12.6135 31.0619 12.6135 53.2824C12.6135 75.5029 30.8215 93.5162 53.2822 93.5162Z" fill="#9293B3"/>
    <path d="M104.565 53.5C104.565 81.9504 81.5974 105 53.2825 105V109C83.8219 109 108.565 84.1441 108.565 53.5H104.565ZM53.2825 2C81.5974 2 104.565 25.0496 104.565 53.5H108.565C108.565 22.8559 83.8219 -2 53.2825 -2V2ZM2 53.5C2 25.0496 24.9676 2 53.2825 2V-2C22.7432 -2 -2 22.8559 -2 53.5H2ZM53.2825 105C24.9676 105 2 81.9504 2 53.5H-2C-2 84.1441 22.7432 109 53.2825 109V105ZM91.9509 53.2824C91.9509 74.3781 74.6587 91.5162 53.2822 91.5162V95.5162C76.8271 95.5162 95.9509 76.6277 95.9509 53.2824H91.9509ZM53.2822 15.0487C74.6587 15.0487 91.9509 32.1867 91.9509 53.2824H95.9509C95.9509 29.9371 76.8271 11.0487 53.2822 11.0487V15.0487ZM14.6135 53.2824C14.6135 32.1867 31.9057 15.0487 53.2822 15.0487V11.0487C29.7373 11.0487 10.6135 29.9371 10.6135 53.2824H14.6135ZM53.2822 91.5162C31.9057 91.5162 14.6135 74.3781 14.6135 53.2824H10.6135C10.6135 76.6277 29.7373 95.5162 53.2822 95.5162V91.5162Z" fill="#4A4C80" mask="url(#path-1-inside-1_510_16)"/>
    <path d="M92.9507 53.2826C92.9507 74.9407 75.2006 92.5163 53.282 92.5163C31.3634 92.5163 13.6133 74.9407 13.6133 53.2826C13.6133 31.6245 31.3634 14.0488 53.282 14.0488C75.2006 14.0488 92.9507 31.6245 92.9507 53.2826Z" fill="url(#paint0_linear_510_16)" stroke="#1E227C" stroke-width="2"/>
    <g filter="url(#filter0_d_510_16)">
        <path d="M71.8911 45.3747C71.8019 45.1901 71.6627 45.0345 71.4895 44.9256C71.3163 44.8167 71.1161 44.759 70.9117 44.759H59.5724L68.6306 25.5599C68.7092 25.3934 68.7446 25.2096 68.7335 25.0256C68.7223 24.8417 68.665 24.6636 68.5668 24.5079C68.4687 24.3522 68.3328 24.2239 68.172 24.1351C68.0112 24.0463 67.8306 23.9998 67.647 24H50.2354C50.0255 24 49.82 24.0609 49.6438 24.1754C49.4676 24.2899 49.3281 24.4532 49.2422 24.6455L35.0953 56.3304C35.021 56.4968 34.9893 56.6792 35.0032 56.861C35.0171 57.0428 35.0761 57.2183 35.1748 57.3713C35.2735 57.5244 35.4089 57.6502 35.5684 57.7373C35.728 57.8244 35.9068 57.8701 36.0884 57.87H46.7086L41.5545 81.6742C41.5019 81.9157 41.5325 82.168 41.6412 82.3899C41.75 82.6117 41.9304 82.7899 42.1531 82.8955C42.3758 83.001 42.6276 83.0276 42.8672 82.9709C43.1069 82.9142 43.3204 82.7775 43.4727 82.5832L71.7666 46.528C71.893 46.3669 71.9716 46.1732 71.9937 45.9693C72.0157 45.7654 71.9801 45.5593 71.8911 45.3747Z" fill="url(#paint1_linear_510_16)"/>
    </g>
    <defs>
        <filter id="filter0_d_510_16" x="35" y="24" width="37" height="64" filterUnits="userSpaceOnUse" color-interpolation-filters="sRGB">
            <feFlood flood-opacity="0" result="BackgroundImageFix"/>
            <feColorMatrix in="SourceAlpha" type="matrix" values="0 0 0 0 0 0 0 0 0 0 0 0 0 0 0 0 0 0 127 0" result="hardAlpha"/>
            <feOffset dy="5"/>
            <feComposite in2="hardAlpha" operator="out"/>
            <feColorMatrix type="matrix" values="0 0 0 0 0 0 0 0 0 0.447059 0 0 0 0 0.541176 0 0 0 1 0"/>
            <feBlend mode="normal" in2="BackgroundImageFix" result="effect1_dropShadow_510_16"/>
            <feBlend mode="normal" in="SourceGraphic" in2="effect1_dropShadow_510_16" result="shape"/>
        </filter>
        <linearGradient id="paint0_linear_510_16" x1="63.4904" y1="-8.23011" x2="53.4965" y2="401.814" gradientUnits="userSpaceOnUse">
            <stop stop-color="#84817E"/>
            <stop offset="0.613508" stop-color="#1E1D1D"/>
        </linearGradient>
        <linearGradient id="paint1_linear_510_16" x1="53.5" y1="24" x2="53.5" y2="83" gradientUnits="userSpaceOnUse">
            <stop stop-color="#03DDF0"/>
            <stop offset="1" stop-color="#0095D0"/>
        </linearGradient>
    </defs>
</svg>