<svg width="77" height="77" viewBox="0 0 77 77" fill="none" xmlns="http://www.w3.org/2000/svg">
<path d="M18.667 50.3998C18.2004 49.9332 17.8504 49.2332 17.7337 48.5332C15.2837 50.3998 13.767 52.4998 8.05038 52.9665C7.70038 52.9665 7.58371 52.9665 7.58371 52.9665C7.00038 53.0832 6.53371 53.6665 6.53371 54.2498C6.53371 54.8332 7.11705 55.4165 7.81705 55.2998H8.28371C8.40038 55.2998 8.51705 55.2998 8.63371 55.2998C10.0337 55.2998 10.8504 55.6498 10.967 55.9998C11.0837 56.1165 11.4337 57.5165 7.35038 61.5998C2.68371 65.9165 2.33371 72.9165 2.33371 73.1498C2.33371 73.4998 2.45038 73.7332 2.68371 73.9665C2.91705 74.1998 3.26705 74.3165 3.50038 74.3165C15.0504 73.8498 17.5004 66.0332 20.8837 66.0332C22.0504 66.0332 21.7004 68.9498 21.7004 69.1832C21.5837 70.6998 23.917 70.9332 24.0337 69.4165C24.0337 69.4165 24.0337 69.1832 24.0337 68.9498C24.3837 64.7498 25.9004 62.7665 27.417 60.6665C27.767 60.1998 28.117 59.7332 28.3504 59.2665C27.6504 59.1498 26.9504 58.7998 26.4837 58.3332L18.667 50.3998ZM18.4337 44.2165C20.3004 37.5665 23.217 29.6332 27.6504 22.3998C23.917 24.3832 18.7837 25.3165 15.7504 22.2832C15.517 22.0498 15.167 21.9332 14.7004 21.9332C14.2337 21.9332 14.0004 22.1665 13.8837 22.5165L1.28371 46.6665C1.05038 47.0165 1.05038 47.5998 1.40038 47.9498C1.75038 48.2998 2.21705 48.4165 2.56705 48.2998L18.4337 44.2165ZM54.4837 49.3498C47.2504 53.7832 39.4337 56.6998 32.667 58.5665L28.5837 74.4332C28.467 74.8998 28.5837 75.3665 28.9337 75.5998C29.167 75.8332 29.4004 75.8332 29.6337 75.8332C29.867 75.8332 29.9837 75.8332 30.217 75.7165L54.2504 63.1165C54.6004 62.9998 54.8337 62.6498 54.8337 62.2998C54.8337 61.9498 54.717 61.5998 54.4837 61.3665C51.6837 58.3332 52.5004 53.0832 54.4837 49.3498ZM44.1004 18.6665C41.6504 21.1165 40.9504 24.2665 42.3504 25.7832C44.1004 27.5332 47.6004 25.8998 49.467 24.0332C51.217 22.2832 52.967 18.6665 51.217 16.9165C49.467 15.1665 45.967 16.7998 44.1004 18.6665ZM73.967 3.14984C72.8004 1.8665 71.167 1.1665 69.417 1.1665H69.3004C65.6837 1.28317 60.317 1.74984 54.6004 3.6165C56.2337 8.39984 68.6004 20.7665 73.5004 22.3998C75.367 16.6832 75.8337 11.3165 75.9504 7.69984C75.8337 5.94984 75.2504 4.3165 73.967 3.14984ZM20.3004 48.7665L28.3504 56.8165C28.5837 57.0498 28.817 57.1665 29.167 57.1665C29.2837 57.1665 29.4004 57.1665 29.517 57.1665C35.5837 55.6498 42.9337 53.1998 49.9337 49.4665C44.4504 48.5332 37.917 43.9832 33.4837 39.4332C29.9837 35.8165 27.767 32.1998 26.8337 28.9332C23.567 35.4665 21.3504 42.2332 19.9504 47.7165C19.8337 47.9498 19.9504 48.4165 20.3004 48.7665Z" fill="#FCFFC6"/>
<path d="M52.3832 4.31689C41.7666 8.28356 34.5332 15.2836 28.8166 25.0836C28.3499 28.2336 30.6832 32.9002 35.1166 37.5669C41.2999 44.1002 48.9999 47.9502 53.4332 46.9002C53.5499 46.9002 53.6666 46.9002 53.7832 46.9002C62.5332 41.4169 68.8332 34.4169 72.5666 24.5002C67.0832 22.8669 54.1332 9.91689 52.3832 4.31689ZM51.0999 25.6669C48.1832 28.5836 43.3999 30.1002 40.7166 27.4169C38.2666 24.9669 39.0832 20.4169 42.4666 17.0336C45.3832 14.1169 50.1666 12.4836 52.8499 15.2836C55.6499 18.0836 53.8999 22.8669 51.0999 25.6669Z" fill="#FCFFC6"/>
</svg>
