<svg width="125" height="118" viewBox="0 0 125 118" fill="none" xmlns="http://www.w3.org/2000/svg">
<g filter="url(#filter0_i_462_274)">
<path d="M96.6104 117.628C95.6039 117.626 94.6132 117.38 93.7235 116.913L62.0796 100.386L30.4357 116.913C29.4111 117.446 28.2569 117.684 27.1033 117.601C25.9497 117.517 24.8424 117.115 23.9065 116.44C22.9706 115.765 22.2431 114.844 21.8062 113.78C21.3693 112.716 21.2402 111.552 21.4336 110.419L27.4743 75.4174L1.87118 50.6274C1.04292 49.8241 0.457254 48.8069 0.180304 47.6905C-0.096646 46.5741 -0.0538467 45.403 0.30387 44.3094C0.661586 43.2159 1.31997 42.2435 2.20468 41.502C3.08939 40.7605 4.16519 40.2795 5.31059 40.1132L40.6919 35.0072L56.5169 3.16257C57.087 2.19959 57.9004 1.40122 58.8766 0.846508C59.8529 0.291801 60.958 0 62.0827 0C63.2074 0 64.3125 0.291801 65.2888 0.846508C66.265 1.40122 67.0784 2.19959 67.6485 3.16257L83.4673 35.0072L118.849 40.1132C119.994 40.2795 121.07 40.7605 121.955 41.502C122.839 42.2435 123.498 43.2159 123.855 44.3094C124.213 45.403 124.256 46.5741 123.979 47.6905C123.702 48.8069 123.116 49.8241 122.288 50.6274L96.6848 75.4174L102.732 110.419C102.884 111.304 102.841 112.211 102.604 113.078C102.367 113.944 101.943 114.749 101.36 115.435C100.778 116.122 100.052 116.674 99.2325 117.052C98.4131 117.431 97.5141 117.628 96.6104 117.628Z" fill="url(#paint0_linear_462_274)"/>
</g>
<path d="M93.9549 116.47L93.956 116.47C94.7741 116.9 95.6854 117.126 96.6113 117.128C97.4429 117.128 98.2699 116.947 99.0226 116.598C99.7762 116.25 100.444 115.743 100.979 115.112C101.514 114.481 101.904 113.742 102.122 112.946C102.339 112.15 102.379 111.317 102.239 110.504L96.1921 75.5025L96.1471 75.2421L96.337 75.0582L121.94 50.2685C122.701 49.5301 123.239 48.5954 123.494 47.5701C123.748 46.5448 123.709 45.4693 123.38 44.4649C123.052 43.4605 122.447 42.5669 121.633 41.8852C120.82 41.2035 119.831 40.761 118.777 40.6081L83.3959 35.5021L83.1362 35.4646L83.0195 35.2297L67.209 3.40181C66.6839 2.52095 65.9373 1.79009 65.0417 1.28123C64.1409 0.769381 63.1209 0.5 62.0827 0.5C61.0445 0.5 60.0245 0.769381 59.1237 1.28123C58.2281 1.7901 57.4815 2.52096 56.9564 3.40184L41.1396 35.2297L41.0229 35.4646L40.7633 35.5021L5.38242 40.6081C4.32862 40.761 3.33922 41.2035 2.52586 41.8852C1.71252 42.5669 1.10765 43.4605 0.77909 44.4649C0.450538 45.4693 0.411243 46.5448 0.665595 47.5701C0.919951 48.5954 1.45794 49.5301 2.21927 50.2685L27.8221 75.0582L28.012 75.242L27.9671 75.5024L21.9265 110.504C21.7489 111.544 21.8674 112.613 22.2687 113.59C22.6701 114.567 23.3385 115.414 24.199 116.035C25.0596 116.655 26.078 117.025 27.1394 117.102C28.2006 117.179 29.2621 116.96 30.2043 116.47H93.9549ZM93.9549 116.47L62.3111 99.943L62.0796 99.8221L61.8481 99.943L30.2049 116.469L93.9549 116.47Z" stroke="#4544AC"/>
<defs>
<filter id="filter0_i_462_274" x="0" y="-4" width="124.159" height="121.628" filterUnits="userSpaceOnUse" color-interpolation-filters="sRGB">
<feFlood flood-opacity="0" result="BackgroundImageFix"/>
<feBlend mode="normal" in="SourceGraphic" in2="BackgroundImageFix" result="shape"/>
<feColorMatrix in="SourceAlpha" type="matrix" values="0 0 0 0 0 0 0 0 0 0 0 0 0 0 0 0 0 0 127 0" result="hardAlpha"/>
<feOffset dy="-6"/>
<feGaussianBlur stdDeviation="2"/>
<feComposite in2="hardAlpha" operator="arithmetic" k2="-1" k3="1"/>
<feColorMatrix type="matrix" values="0 0 0 0 0 0 0 0 0 0 0 0 0 0 0 0 0 0 0.25 0"/>
<feBlend mode="normal" in2="shape" result="effect1_innerShadow_462_274"/>
</filter>
<linearGradient id="paint0_linear_462_274" x1="62.0796" y1="0" x2="62.0796" y2="213.5" gradientUnits="userSpaceOnUse">
<stop stop-color="#6563FF"/>
<stop offset="1" stop-color="#3D3B99"/>
</linearGradient>
</defs>
</svg>
