<svg width="61" height="57" viewBox="0 0 61 57" fill="none" xmlns="http://www.w3.org/2000/svg">
<path d="M21.0233 32.1989L12.0808 33.1227L1.59882 23.799C1.33287 23.5404 1.14676 23.2172 1.05838 22.8658C0.968735 22.5094 0.982514 22.1357 1.09845 21.7862C1.21444 21.4364 1.42885 21.1226 1.72031 20.8817C2.01194 20.6406 2.36871 20.4826 2.75084 20.4279L20.133 17.9537L20.6501 17.8801L20.8852 17.4137L28.6418 2.01869C28.8304 1.7155 29.0958 1.46156 29.4153 1.28254C29.7448 1.09788 30.1193 1 30.5015 1C30.8838 1 31.2583 1.09788 31.5878 1.28254C31.9072 1.46155 32.1726 1.71547 32.3612 2.01861L40.1148 17.4135L40.3498 17.8801L40.867 17.9537L58.2491 20.4279C58.6313 20.4826 58.9881 20.6406 59.2797 20.8817C59.5711 21.1226 59.7856 21.4364 59.9015 21.7862C60.0175 22.1357 60.0313 22.5094 59.9416 22.8658C59.8519 23.2224 59.6617 23.5499 59.3894 23.8103L46.8111 35.8224L46.4245 36.1916L46.5167 36.7181L49.4876 53.6792C49.4876 53.6792 49.4876 53.6793 49.4876 53.6793C49.537 53.9616 49.5229 54.251 49.4462 54.5278C49.3694 54.8047 49.2315 55.0633 49.0407 55.2852C48.8498 55.5071 48.6104 55.6871 48.3385 55.8111C48.0678 55.9345 47.768 55.9996 47.4658 56C47.1305 55.9989 46.8013 55.9181 46.5068 55.7655L46.5047 55.7644L30.9579 47.7559L30.5 47.52L30.0421 47.7559L14.4966 55.7637C14.4966 55.7637 14.4965 55.7637 14.4965 55.7638C14.1566 55.9382 13.7723 56.0168 13.3872 55.9893C13.0021 55.9618 12.6343 55.8295 12.3251 55.6095C12.016 55.3896 11.7786 55.0915 11.6366 54.7508C11.4972 54.4158 11.4547 54.051 11.5128 53.6954L14.4049 40.2752L21.7771 33.9526L24.2054 31.8701L21.0233 32.1989Z" fill="url(#paint0_linear_562_10)" stroke="#FC8B1A" stroke-width="2"/>
<defs>
<linearGradient id="paint0_linear_562_10" x1="31" y1="6.5" x2="31" y2="72.5" gradientUnits="userSpaceOnUse">
<stop stop-color="#FCFF67"/>
<stop offset="1" stop-color="#FDA900"/>
</linearGradient>
</defs>
</svg>
